<?xml version="1.0" encoding="UTF-8"?>
<svg width="24px" height="24px" viewBox="0 0 24 24" version="1.1" xmlns="http://www.w3.org/2000/svg" xmlns:xlink="http://www.w3.org/1999/xlink">
    <!-- Generator: Sketch 50.2 (55047) - http://www.bohemiancoding.com/sketch -->
    <title>Company account</title>
    <desc>Created with Sketch.</desc>
    <defs></defs>
    <g id="Company-account" stroke="none" stroke-width="1" fill="none" fill-rule="evenodd">
        <path d="M21.3569193,19.8770366 C21.3569193,21.0794501 20.3885147,22.0487473 19.1844907,22.0487473 L3.16253678,22.0487473 C1.95133301,22.0487473 0.961060545,21.0723669 0.961060545,19.8770366 L0.961060545,8.01467568 C0.961060545,6.91904327 1.79426907,5.99795775 2.88726427,5.86560773 C2.96546775,5.85599325 3.05763196,5.85141825 3.16253678,5.85141825 L19.1844907,5.85141825 C20.3905091,5.85141825 21.3569193,6.81451486 21.3569193,8.01467568 L21.3569193,10.9246343 L16.9222677,10.9246343 C16.0964267,10.9246343 15.3230029,11.2453027 14.7536168,11.8085857 C14.1835502,12.3728208 13.8551566,13.1470185 13.8551566,13.9643884 C13.8551566,15.6413948 15.2285158,17.0019362 16.9222677,17.0019362 L21.3569193,17.0019362 L21.3569193,19.8770366 Z M16.9222677,11.875887 L22.3179798,11.875887 L22.3179798,8.01469891 C22.3179798,6.29064195 20.9227761,4.90021201 19.1844907,4.90021201 L3.16253678,4.90021201 C3.02091175,4.90021201 2.89061953,4.90664489 2.76959535,4.92155429 C1.19780617,5.11189308 0,6.43604351 0,8.01469891 L0,19.8770598 C0,21.5985622 1.42136537,23 3.16253678,23 L19.1844907,23 C20.9217203,23 22.3179798,21.6024637 22.3179798,19.8770598 L22.3179798,16.05073 L16.9222677,16.05073 C15.7594924,16.05073 14.8162171,15.1162678 14.8162171,13.9644116 C14.8162171,13.4009893 15.0422165,12.8681986 15.4331166,12.4813204 C15.8231955,12.0954176 16.3526704,11.875887 16.9222912,11.875887 L16.9222677,11.875887 Z M23.0389395,12.124679 L23.0389395,15.8162436 C23.0389395,15.952379 22.927066,16.0654072 22.7979704,16.0654072 L16.9224085,16.0654072 C15.7605717,16.0654072 14.8163579,15.1281117 14.8163579,13.9753266 C14.8163579,13.4142963 15.0404333,12.8898196 15.4332574,12.5010138 C15.8259407,12.1125564 16.356143,11.8905642 16.922432,11.8905642 L22.7979939,11.8905642 C22.9332134,11.8905642 23.0389629,11.9943262 23.0389629,12.124679 L23.0389395,12.124679 Z M24,12.124679 C24,11.4671788 23.4621487,10.9393347 22.7979704,10.9393347 L16.9224085,10.9393347 C16.0986323,10.9393347 15.3249269,11.2632776 14.7537576,11.8283023 C14.1824005,12.3938147 13.8552973,13.159443 13.8552973,13.9753034 C13.8552973,15.6528207 15.2291728,17.0166134 16.9224085,17.0166134 L22.7979704,17.0166134 C23.4623364,17.0166134 24,16.4733258 24,15.8162203 L24,12.1246558 L24,12.124679 Z M17.8313803,13.9507563 C17.8313803,14.4026367 17.4611749,14.7690551 17.0046242,14.7690551 C16.5479562,14.7690551 16.1778682,14.4026367 16.1778682,13.9507563 C16.1778682,13.4988061 16.5479328,13.1324574 17.0046242,13.1324574 C17.4611749,13.1324574 17.8313803,13.4988061 17.8313803,13.9507563 Z M17.9532961,2.95588134 C18.0278862,2.96256967 18.1009747,2.97694494 18.1633873,2.99842656 C18.2796015,3.03846366 18.3238065,3.08177526 18.3346936,3.15495211 C18.3471526,3.23867238 18.3520565,3.64796115 18.3473638,4.20597242 C18.3456744,4.40578634 18.3429527,4.61886082 18.3394332,4.83697476 C18.337298,4.97006792 18.3349986,5.09689078 18.3327226,5.213147 C18.3319249,5.25381113 18.331174,5.29022538 18.3305171,5.32187884 C18.3302824,5.33293317 18.3301417,5.33938927 18.329907,5.35081517 C18.3297193,5.35903624 19.2905218,5.38156292 19.2905218,5.38156292 C19.290991,5.35952393 19.2911318,5.35297494 19.2913664,5.3417116 C19.2920469,5.30964012 19.2927977,5.27278462 19.2935955,5.23170247 C19.2959183,5.11435476 19.2982178,4.98641718 19.3003764,4.8521164 C19.3039194,4.63174979 19.306688,4.41632976 19.3083774,4.21391482 C19.313774,3.5739947 19.308964,3.17418107 19.2854771,3.01635501 C19.2162836,2.55126047 18.9056752,2.24696458 18.479275,2.1000535 C18.2229843,2.01175823 17.9283545,1.98537647 17.7292911,2.00732256 L2.93749939,4.90455478 L3.12417414,5.83767001 L17.8473824,2.95214238 C17.8935818,2.95184047 17.9227233,2.95314098 17.9532727,2.95585812 L17.9532961,2.95588134 Z" id="wallet" fill="#93A4B0" fill-rule="nonzero"></path>
    </g>
</svg>