<?xml version="1.0" encoding="UTF-8"?>
<svg width="24px" height="24px" viewBox="0 0 24 24" version="1.1" xmlns="http://www.w3.org/2000/svg" xmlns:xlink="http://www.w3.org/1999/xlink">
    <!-- Generator: Sketch 50.2 (55047) - http://www.bohemiancoding.com/sketch -->
    <title>Debit card</title>
    <desc>Created with Sketch.</desc>
    <defs></defs>
    <g id="Debit-card" stroke="none" stroke-width="1" fill="none" fill-rule="evenodd">
        <path d="M23,5.88247822 L22.9956693,19.0419023 C22.9956693,20.0788133 22.1728346,20.924363 21.1637795,20.924363 L2.83188976,20.924363 C1.82283465,20.924363 1,20.0788133 1,19.0419023 L1,5.88247822 C1,4.84111696 1.82283465,3.99556722 2.83188976,4.00001749 L21.1681102,4.00001749 C22.1771654,4.00001749 23,4.84556722 23,5.88247822 Z M2.73677729,5.14996519 C2.39995559,5.14996519 2.11999989,5.4530267 2.11999989,5.81764758 L2.11999989,8.45996513 L21.8699999,8.45996513 L21.8699999,5.81764758 C21.8699999,5.44829136 21.5944185,5.14996519 21.2532225,5.14996519 L2.73677729,5.14996519 Z M21.2632227,19.7699646 L2.74677752,19.7699646 C2.40558151,19.7699646 2.13000011,19.4867715 2.13000011,19.1361515 L2.13000011,9.61996498 L21.8800001,9.61996498 L21.8800001,19.1361515 C21.8800001,19.4822764 21.6000444,19.7699646 21.2632227,19.7699646 Z M19.1110236,11.8547295 L13.1476378,11.8547295 C12.8098425,11.8547295 12.5370079,12.135096 12.5370079,12.4822164 L12.5370079,16.8034206 C12.5370079,17.150541 12.8098425,17.4309075 13.1476378,17.4309075 L19.1110236,17.4309075 C19.4488189,17.4309075 19.7216535,17.150541 19.7216535,16.8034206 L19.7216535,12.4822164 C19.7216535,12.135096 19.4444882,11.8547295 19.1110236,11.8547295 Z M18.5,16.2799653 L13.6599998,16.2799653 L13.6599998,13.0099653 L18.5,13.0099653 L18.5,16.2799653 Z M9.53149606,15.0856196 L4.96692913,15.0856196 C4.62913386,15.0856196 4.35629921,15.3659861 4.35629921,15.7131065 C4.35629921,16.0602269 4.62913386,16.3405934 4.96692913,16.3405934 L9.53149606,16.3405934 C9.86929134,16.3405934 10.142126,16.0602269 10.142126,15.7131065 C10.142126,15.3659861 9.86929134,15.0856196 9.53149606,15.0856196 Z" id="Credit-card" fill="#93A4B0"></path>
    </g>
</svg>