<?xml version="1.0" encoding="UTF-8"?>
<svg width="24px" height="24px" viewBox="0 0 24 24" version="1.1" xmlns="http://www.w3.org/2000/svg" xmlns:xlink="http://www.w3.org/1999/xlink">
    <!-- Generator: Sketch 50.2 (55047) - http://www.bohemiancoding.com/sketch -->
    <title>Net banking</title>
    <desc>Created with Sketch.</desc>
    <defs></defs>
    <g id="Net-banking" stroke="none" stroke-width="1" fill="none" fill-rule="evenodd">
        <path d="M12,23 C5.94035088,23 1,18.0596491 1,12 C1,5.94035088 5.94035088,1 12,1 C18.0596491,1 23,5.94035088 23,12 C23,18.0596491 18.0596491,23 12,23 Z M15.7133112,9.51877181 L14.3194699,9.51877181 C14.2461099,9.25927921 14.1360698,8.99978661 13.9526696,8.77736438 L15.7133112,8.77736438 C16.0067515,8.77736438 16.2635117,8.51787177 16.2635117,8.2213088 C16.2635117,7.92474582 16.0067515,7.66525322 15.7133112,7.66525322 L11.238347,7.66525322 L9.11090506,7.66525322 C8.81746479,7.66525322 8.56070455,7.92474582 8.56070455,8.2213088 C8.56070455,8.51787177 8.81746479,8.77736438 9.11090506,8.77736438 L11.238347,8.77736438 C12.3754281,8.77736438 12.8889486,9.07392735 13.1457088,9.51877181 L9.11090506,9.51877181 C8.81746479,9.51877181 8.56070455,9.77826441 8.56070455,10.0748274 C8.56070455,10.3713904 8.81746479,10.630883 9.11090506,10.630883 L13.329109,10.630883 C13.292429,11.4093608 12.9623087,12.1136978 11.238347,12.1136978 L9.11090506,12.1136978 C8.89082486,12.1136978 8.67074465,12.2619793 8.59738458,12.4473312 C8.52402451,12.6697534 8.56070455,12.8921756 8.70742469,13.0404571 L13.1090288,17.4889018 C13.2190689,17.6001129 13.365789,17.6371832 13.5125092,17.6371832 C13.6592293,17.6371832 13.8059494,17.6001129 13.9159895,17.4889018 C14.1360698,17.2664795 14.1360698,16.9328462 13.9159895,16.7104239 L10.4680663,13.225809 L11.238347,13.225809 C13.8793095,13.225809 14.39283,11.6688534 14.42951,10.630883 L15.7133112,10.630883 C16.0067515,10.630883 16.2635117,10.3713904 16.2635117,10.0748274 C16.2635117,9.77826441 16.0067515,9.51877181 15.7133112,9.51877181 Z" id="No-extra-charge" fill="#EE2E24"></path>
    </g>
</svg>