<?xml version="1.0" encoding="UTF-8"?>
<svg width="24px" height="24px" viewBox="0 0 24 24" version="1.1" xmlns="http://www.w3.org/2000/svg" xmlns:xlink="http://www.w3.org/1999/xlink">
    <!-- Generator: Sketch 50.2 (55047) - http://www.bohemiancoding.com/sketch -->
    <title>PayU Moneey</title>
    <desc>Created with Sketch.</desc>
    <defs></defs>
    <g id="PayU-Moneey" stroke="none" stroke-width="1" fill="none" fill-rule="evenodd">
        <g id="payu-money" transform="translate(1.000000, 1.000000)" fill-rule="nonzero">
            <rect id="Rectangle-path" fill="#A0CC29" x="0" y="0" width="22" height="22" rx="3.57"></rect>
            <path d="M15.675,10.175 L15.675,15.3358333 C15.6448508,17.7580808 13.6699294,19.7043801 11.2475,19.6991667 L8.97416667,19.6991667 C6.56602572,19.684364 4.61326526,17.7438338 4.58333333,15.3358333 L4.58333333,8.47916667 C4.58333333,7.97290565 4.99373898,7.5625 5.5,7.5625 L7.0125,7.5625 C7.5708893,7.56247734 8.02496947,8.01246669 8.03,8.57083333 L8.03,15.2166667 C8.03,16.0519974 8.70716932,16.7291667 9.5425,16.7291667 L10.6791667,16.7291667 C11.5144974,16.7291667 12.1916667,16.0519974 12.1916667,15.2166667 L12.1916667,8.57083333 C12.1916667,8.0088836 12.6472169,7.55333333 13.2091667,7.55333333 L13.9058333,7.55333333 L13.9058333,9.50583333 C13.9058333,9.87540388 14.2054295,10.175 14.575,10.175 L15.675,10.175 Z" id="Shape" fill="#FFFFFF"></path>
            <path d="M15.675,8.47916667 L15.675,10.175 L14.575,10.175 C14.2054295,10.175 13.9058333,9.87540388 13.9058333,9.50583333 L13.9058333,7.55333333 L14.74,7.55333333 C14.987874,7.54836196 15.2271913,7.64400642 15.4033614,7.81844937 C15.5795315,7.99289231 15.6775291,8.23125569 15.675,8.47916667 Z" id="Shape" fill="#A0CC29"></path>
            <path d="M17.4166667,7.33333333 L17.4166667,9.52416667 C17.4166667,9.89373721 17.1170705,10.1933333 16.7475,10.1933333 L15.675,10.1933333 L15.675,8.47916667 C15.675,7.97290565 15.2645944,7.5625 14.7583333,7.5625 L13.9241667,7.5625 L13.9241667,7.33333333 C13.9241328,6.96225098 14.2222849,6.66001462 14.5933333,6.655 L16.7841667,6.655 C17.1429162,6.67464548 17.4221259,6.9740878 17.4166667,7.33333333 Z" id="Shape" fill="#FFFFFF"></path>
            <rect id="Rectangle-path" fill="#FFFFFF" x="15.675" y="2.30083333" width="1.76916667" height="1.76916667" rx="0.37"></rect>
        </g>
    </g>
</svg>