<?xml version="1.0" encoding="UTF-8"?>
<svg width="27px" height="27px" viewBox="0 0 27 27" version="1.1" xmlns="http://www.w3.org/2000/svg" xmlns:xlink="http://www.w3.org/1999/xlink">
    <!-- Generator: Sketch 50.2 (55047) - http://www.bohemiancoding.com/sketch -->
    <title>No extra charge</title>
    <desc>Created with Sketch.</desc>
    <defs></defs>
    <g id="01-DASHBOARD" stroke="none" stroke-width="1" fill="none" fill-rule="evenodd" fill-opacity="0.3">
        <g id="07-user-dropdown-notification" transform="translate(-802.000000, -98.000000)" fill="#000000">
            <g id="notification" transform="translate(781.000000, 68.000000)">
                <g id="Group-6" transform="translate(19.000000, 28.000000)">
                    <path d="M15.5,29 C8.06315789,29 2,22.9368421 2,15.5 C2,8.06315789 8.06315789,2 15.5,2 C22.9368421,2 29,8.06315789 29,15.5 C29,22.9368421 22.9368421,29 15.5,29 L15.5,29 Z M15.5000048,3.29920032 C22.2463372,3.29920032 27.7008187,8.75368186 27.7008187,15.5000143 C27.7008187,22.2463467 22.2463372,27.7008283 15.5000048,27.7008283 C8.75367233,27.7008283 3.2991908,22.2463467 3.2991908,15.5000143 C3.2991908,8.75368186 8.75367233,3.29920032 15.5000048,3.29920032 Z M20.0572456,12.4548563 L18.3466222,12.4548563 C18.2565894,12.1363881 18.1215402,11.8179199 17.8964581,11.5449472 L20.0572456,11.5449472 C20.4173768,11.5449472 20.7324917,11.226479 20.7324917,10.8625153 C20.7324917,10.4985517 20.4173768,10.1800835 20.0572456,10.1800835 L14.5652441,10.1800835 L11.9542926,10.1800835 C11.5941613,10.1800835 11.2790465,10.4985517 11.2790465,10.8625153 C11.2790465,11.226479 11.5941613,11.5449472 11.9542926,11.5449472 L14.5652441,11.5449472 C15.9607527,11.5449472 16.5909824,11.9089108 16.9060972,12.4548563 L11.9542926,12.4548563 C11.5941613,12.4548563 11.2790465,12.7733245 11.2790465,13.1372882 C11.2790465,13.5012518 11.5941613,13.81972 11.9542926,13.81972 L17.1311792,13.81972 C17.0861628,14.7751246 16.6810152,15.6395383 14.5652441,15.6395383 L11.9542926,15.6395383 C11.6841941,15.6395383 11.4140957,15.8215201 11.3240629,16.0489974 C11.2340301,16.3219701 11.2790465,16.5949428 11.4591121,16.7769247 L16.8610808,22.2363794 C16.99613,22.3728658 17.1761956,22.4183612 17.3562613,22.4183612 C17.5363269,22.4183612 17.7163925,22.3728658 17.8514417,22.2363794 C18.1215402,21.9634067 18.1215402,21.5539476 17.8514417,21.2809748 L13.6198996,17.0044019 L14.5652441,17.0044019 C17.8064253,17.0044019 18.436655,15.0935928 18.4816714,13.81972 L20.0572456,13.81972 C20.4173768,13.81972 20.7324917,13.5012518 20.7324917,13.1372882 C20.7324917,12.7733245 20.4173768,12.4548563 20.0572456,12.4548563 Z" id="No-extra-charge"></path>
                </g>
            </g>
        </g>
    </g>
</svg>