<?xml version="1.0" encoding="UTF-8"?>
<svg width="28px" height="28px" viewBox="0 0 28 28" version="1.1" xmlns="http://www.w3.org/2000/svg" xmlns:xlink="http://www.w3.org/1999/xlink">
    <!-- Generator: Sketch 50.2 (55047) - http://www.bohemiancoding.com/sketch -->
    <title>checkmark</title>
    <desc>Created with Sketch.</desc>
    <defs></defs>
    <g id="01-DASHBOARD" stroke="none" stroke-width="1" fill="none" fill-rule="evenodd" fill-opacity="0.3">
        <g id="07-user-dropdown-notification" transform="translate(-802.000000, -220.000000)" fill="#000000">
            <g id="notification" transform="translate(781.000000, 68.000000)">
                <g id="Group-5" transform="translate(15.000000, 150.000000)">
                    <path d="M20,30 C16.3265789,30 12.8746053,28.57 10.2765789,25.9734211 C7.67855263,23.3768421 6.25,19.9234211 6.25,16.2514474 C6.25,12.5780263 7.68,9.12605263 10.2765789,6.52802632 C12.8731579,3.93 16.3265789,2.5 20,2.5 C23.6734211,2.5 27.1253947,3.93 29.7234211,6.52802632 C32.3214474,9.12605263 33.75,12.5780263 33.75,16.2514474 C33.75,19.9248684 32.32,23.3768421 29.7234211,25.9734211 C27.1268421,28.57 23.6734211,30 20,30 L20,30 Z M20,3.94736842 C26.7838158,3.94736842 32.3026316,9.46618421 32.3026316,16.25 C32.3026316,23.0338158 26.7838158,28.5526316 20,28.5526316 C13.2161842,28.5526316 7.69736842,23.0338158 7.69736842,16.25 C7.69736842,9.46618421 13.2161842,3.94736842 20,3.94736842 Z M17.1052632,22.0394737 L17.1023684,22.0394737 C17.2876316,22.0394737 17.4728947,21.97 17.6147368,21.8281579 L27.7463158,11.6965789 C28.0285526,11.4143421 28.0285526,10.9555263 27.7463158,10.6732895 C27.4640789,10.3910526 27.0052632,10.3910526 26.7230263,10.6732895 L17.1038158,20.2925 L13.2740789,16.4627632 C12.9918421,16.1805263 12.5330263,16.1805263 12.2507895,16.4627632 C11.9685526,16.745 11.9685526,17.2038158 12.2507895,17.4860526 L16.5928947,21.8281579 C16.7347368,21.9685526 16.92,22.0394737 17.1052632,22.0394737 Z" id="checkmark"></path>
                </g>
            </g>
        </g>
    </g>
</svg>