<?xml version="1.0" encoding="UTF-8"?>
<svg width="113px" height="27px" viewBox="0 0 113 27" version="1.1" xmlns="http://www.w3.org/2000/svg" xmlns:xlink="http://www.w3.org/1999/xlink">
    <!-- Generator: Sketch 49.3 (51167) - http://www.bohemiancoding.com/sketch -->
    <title>OYO_B_logo</title>
    <desc>Created with Sketch.</desc>
    <defs></defs>
    <g id="OYO_B_logo" stroke="none" stroke-width="1" fill="none" fill-rule="evenodd">
        <g id="OYO-_B_-01-logo" fill="#EE4023" fill-rule="nonzero">
            <g id="Group">
                <polygon id="Shape" points="52.8272727 0.381818182 43.1454545 0.381818182 39.0272727 8.56363636 34.9090909 0.381818182 25.2272727 0.381818182 34.2818182 18.2727273 34.2818182 26.7 43.8 26.7 43.8 18.2727273"></polygon>
                <path d="M64.4454545,0.0818181818 C57.0272727,0.0818181818 51,6.10909091 51,13.5272727 C51,20.9454545 57.0272727,26.9727273 64.4454545,26.9727273 C71.8636364,26.9727273 77.8909091,20.9454545 77.8909091,13.5272727 C77.8909091,6.13636364 71.8363636,0.0818181818 64.4454545,0.0818181818 Z M64.4454545,18.3272727 C61.8,18.3272727 59.6454545,16.1727273 59.6454545,13.5272727 C59.6454545,10.8818182 61.8,8.72727273 64.4454545,8.72727273 C67.0909091,8.72727273 69.2454545,10.8818182 69.2454545,13.5272727 C69.2181818,16.1727273 67.0636364,18.3272727 64.4454545,18.3272727 Z" id="Shape"></path>
                <path d="M13.6363636,0.0818181818 C6.21818182,0.0818181818 0.190909091,6.10909091 0.190909091,13.5272727 C0.190909091,20.9454545 6.21818182,26.9727273 13.6363636,26.9727273 C21.0545455,26.9727273 27.0818182,20.9454545 27.0818182,13.5272727 C27.0818182,6.13636364 21.0545455,0.0818181818 13.6363636,0.0818181818 Z M13.6363636,18.3272727 C10.9909091,18.3272727 8.83636364,16.1727273 8.83636364,13.5272727 C8.83636364,10.8818182 10.9909091,8.72727273 13.6363636,8.72727273 C16.2818182,8.72727273 18.4363636,10.8818182 18.4363636,13.5272727 C18.4363636,16.1727273 16.2818182,18.3272727 13.6363636,18.3272727 Z" id="Shape"></path>
            </g>
            <path d="M83,27 L83,22.4358452 L86.2739572,22.4358452 L86.2739572,4.56415479 L83,4.56415479 L83,0 L95.1217587,0 C97.800451,0 99.8027057,0.16496945 101.128523,0.467413442 C102.427283,0.797352342 103.563698,1.56720978 104.537768,2.77698574 C105.48478,3.98676171 105.971815,5.44399185 105.971815,7.06619145 C105.971815,9.70570265 104.72717,11.5478615 102.23788,12.6476578 C105.430665,13.8574338 107,16.0020367 107,19.1089613 C107,20.8961303 106.512965,22.4358452 105.511838,23.700611 C104.537768,24.9653768 103.239008,25.8452138 101.696731,26.3126273 C100.127396,26.7800407 97.9627959,27 95.1217587,27 L83,27 Z M93.2006764,10.6680244 L95.1488162,10.6680244 C96.5016911,10.6680244 97.5028185,10.4480652 98.1251409,9.98065173 C98.7745209,9.51323829 99.0721533,8.68839104 99.0721533,7.50610998 C99.0721533,6.43380855 98.7745209,5.66395112 98.1521984,5.22403259 C97.529876,4.78411405 96.4475761,4.56415479 94.9052988,4.56415479 L93.1736189,4.56415479 L93.1736189,10.6680244 L93.2006764,10.6680244 Z M93.2006764,22.4633401 L95.1488162,22.4633401 C96.9075536,22.4633401 98.1521984,22.2158859 98.8556933,21.6934827 C99.5591883,21.1710794 99.9109357,20.2637475 99.9109357,18.9439919 C99.9109357,17.5692464 99.5321308,16.6069246 98.7745209,16.0570265 C98.0169109,15.5071283 96.7993236,15.2321792 95.1488162,15.2321792 L93.2006764,15.2321792 L93.2006764,22.4633401 Z" id="Shape"></path>
            <rect id="Rectangle-path" x="110" y="8" width="3" height="10"></rect>
            <rect id="Rectangle-path" x="79" y="8" width="3" height="10"></rect>
        </g>
    </g>
</svg>