<?xml version="1.0" encoding="UTF-8"?>
<svg width="132px" height="133px" viewBox="0 0 132 133" version="1.1" xmlns="http://www.w3.org/2000/svg" xmlns:xlink="http://www.w3.org/1999/xlink">
    <!-- Generator: Sketch 49.3 (51167) - http://www.bohemiancoding.com/sketch -->
    <title>promotional_topup_illustrations</title>
    <desc>Created with Sketch.</desc>
    <defs></defs>
    <g id="promotional_topup_illustrations" stroke="none" stroke-width="1" fill="none" fill-rule="evenodd">
        <g id="oyo-pp-dw-2" fill-rule="nonzero">
            <g id="Shape" transform="translate(11.000000, 39.000000)">
                <path d="M46.8692829,0.71 L56.9996124,15.99 L10.4787791,21.36 L0.643507752,6.45 C0.560691077,6.32336568 0.548059529,6.1622276 0.610102361,6.02385424 C0.672145194,5.88548088 0.80006579,5.78949122 0.948401163,5.77 L46.4758721,0.52 C46.6310828,0.506733299 46.7813315,0.579296776 46.8692829,0.71 Z" fill="#FFFFFF"></path>
                <path d="M10.3214147,21.76 L0.318943798,6.66 C0.16213481,6.42520243 0.137629226,6.12408552 0.254348694,5.86627567 C0.371068163,5.60846582 0.611984977,5.43157381 0.889389535,5.4 L46.4168605,0.15 C46.7102218,0.118915811 46.9968731,0.253137276 47.1643411,0.5 L57.6880814,16.3 L10.3214147,21.76 Z M46.5053779,0.89 L0.968071705,6.15 L0.968071705,6.25 L10.7246609,20.97 L56.3898256,15.7 L46.5545543,0.93 C46.5471143,0.908144523 46.5279822,0.892582505 46.5053779,0.89 Z" fill="#BAC3E2"></path>
            </g>
            <g id="Shape-2" transform="translate(67.000000, 39.000000)">
                <path d="M11.0000484,0.678787879 L0.869718992,15.5054545 L47.4298934,20.3539394 L57.2651647,5.11030303 C57.3488733,4.98469812 57.3593815,4.82493523 57.2928279,4.68972299 C57.2262744,4.55451076 57.0924762,4.46379414 56.9406008,4.45090909 L11.4032946,0.494545455 C11.2447161,0.478018954 11.0897684,0.548814266 11.0000484,0.678787879 Z" id="Shape" fill="#FFFFFF"></path>
                <path d="M47.6167636,20.7224242 L0.220591085,15.8060606 L10.695155,0.475151515 C10.8570162,0.233673745 11.1404619,0.0995329492 11.4328004,0.126060606 L56.9602713,4.0630303 C57.2386612,4.08858776 57.4837639,4.25448182 57.608,4.50143576 C57.7322362,4.7483897 57.7178788,5.04116628 57.5700581,5.27515152 L47.6167636,20.7224242 Z M1.5188469,15.2145455 L47.2430233,19.9466667 L56.9406008,4.8969697 L56.9406008,4.43151515 L56.9406008,4.79030303 L11.3639535,0.853333333 L11.0000484,0.678787879 L11.3049419,0.882424242 L1.5188469,15.2145455 Z" id="Shape" fill="#BAC3E2"></path>
            </g>
            <g id="Oval-2" transform="translate(0.000000, 101.000000)" fill="#F5F5F5">
                <path d="M61.6104853,0.00247582205 C103.635378,0.00247582205 136.064963,5.52851064 124.338456,15.8477369 C116.098474,23.0771373 103.566629,28.7220116 61.6104853,31.1780271 C12.9759288,34.0796905 21.2944808,24.0080464 2.92884656,16.5904836 C-8.68962684,11.8765184 19.5855929,0.00247582205 61.6104853,0.00247582205 Z" id="Shape"></path>
            </g>
            <g id="Shape-3" transform="translate(21.000000, 54.000000)" fill="#F5F5F5">
                <polygon id="Shape" points="0.0265663616 5.52051282 45.7027254 0.103076923 92.9115755 5.14051282 44.2486339 11.9317949"></polygon>
            </g>
            <g id="Shape-4" transform="translate(35.000000, 0.000000)">
                <path d="M8.28738955,0.364921005 C3.27185356,0.364921005 0.333062937,3.45195545 0.333062937,6.9039109 L0.333062937,112.228003 C0.217347741,115.554899 2.79874678,118.348043 6.10288852,118.471111 L56.8655985,118.471111 C60.1658624,118.342754 62.7414184,115.551193 62.6256281,112.228003 L62.6256281,6.9039109 C62.6256281,3.46181818 58.9717318,0.364921005 54.9064048,0.463548304 L8.28738955,0.364921005 Z" id="Shape" fill="#F5F5F5"></path>
                <path d="M56.8851905,118.826169 L6.13227643,118.826169 C2.63582863,118.697649 -0.100353983,115.748879 0.00979596874,112.228003 L0.00979596874,6.9039109 C0.00979596874,3.47168091 2.8506269,0 8.28738955,0 L54.9357927,0.0986272986 C57.2032357,0.0715177221 59.389571,0.947049413 61.0190893,2.53472157 C62.2344397,3.67510147 62.9409141,5.26127627 62.978283,6.93349909 L62.978283,112.228003 C63.0887115,115.73778 60.3700108,118.681841 56.8851905,118.826169 Z M8.27759358,0.72984201 C3.31103743,0.72984201 0.715105718,3.83660192 0.715105718,6.9039109 L0.715105718,112.228003 C0.651436505,113.735026 1.18566199,115.205675 2.20001153,116.315743 C3.21436106,117.425811 4.62555015,118.084154 6.12248046,118.145641 L56.8851905,118.145641 C58.3821208,118.084154 59.7933099,117.425811 60.8076594,116.315743 C61.8220089,115.205675 62.3562344,113.735026 62.2925652,112.228003 L62.2925652,6.9039109 C62.2445595,5.41918735 61.6013834,4.01732782 60.5096989,3.01799534 C59.0095481,1.57928957 57.0072999,0.792772113 54.9357927,0.828469308 L8.27759358,0.72984201 Z" id="Shape" fill="#BAC3E2"></path>
            </g>
            <g id="Shape-5" transform="translate(39.000000, 15.000000)" fill="#FFFFFF">
                <polygon id="Shape" points="0.0596662388 0.12072093 0.0596662388 86.9381783 55.9172101 86.9381783 55.9172101 0.12072093"></polygon>
            </g>
            <g id="Pulse" transform="translate(64.000000, 7.000000)" fill="#BED1F4">
                <path d="M1.12820513,0.703333333 L10.8717949,0.703333333 C11.103188,0.703333333 11.2907692,0.895850891 11.2907692,1.13333333 C11.2907692,1.37081578 11.103188,1.56333333 10.8717949,1.56333333 L1.12820513,1.56333333 C1.01708622,1.56333333 0.910518452,1.51802989 0.831945518,1.43738925 C0.753372584,1.35674861 0.709230769,1.24737642 0.709230769,1.13333333 C0.709230769,1.01929024 0.753372584,0.90991806 0.831945518,0.829277417 C0.910518452,0.748636775 1.01708622,0.703333333 1.12820513,0.703333333 Z" id="Shape"></path>
                <path d="M10.9107692,1.90333333 L1.16717949,1.90333333 C0.866080935,1.93782904 0.572318379,1.79238213 0.411217501,1.5290435 C0.250116623,1.26570487 0.250116623,0.930961797 0.411217501,0.667623169 C0.572318379,0.40428454 0.866080935,0.258837625 1.16717949,0.293333333 L10.9107692,0.293333333 C11.2118678,0.258837625 11.5056303,0.40428454 11.6667312,0.667623169 C11.8278321,0.930961797 11.8278321,1.26570487 11.6667312,1.5290435 C11.5056303,1.79238213 11.2118678,1.93782904 10.9107692,1.90333333 Z M1.16717949,1.04333333 C1.15167452,1.04333333 1.1368046,1.04965474 1.12584094,1.06090693 C1.11487727,1.07215911 1.10871795,1.08742034 1.10871795,1.10333333 L10.94,1.16333333 L10.94,1.05333333 L1.16717949,1.04333333 Z" id="Shape"></path>
            </g>
            <g id="Camera" transform="translate(59.000000, 7.000000)" fill="#BED1F4">
                <circle id="Oval" cx="1.42333333" cy="1.50666667" r="1.04"></circle>
                <path d="M1.42333333,2.92666667 C0.639088989,2.92666667 0.00333333333,2.29091101 0.00333333333,1.50666667 C0.00333333333,0.722422322 0.639088989,0.0866666667 1.42333333,0.0866666667 C2.20757768,0.0866666667 2.84333333,0.722422322 2.84333333,1.50666667 C2.84333333,2.29091101 2.20757768,2.92666667 1.42333333,2.92666667 Z M1.42333333,0.836666667 C1.05330255,0.836666667 0.753333333,1.13663588 0.753333333,1.50666667 C0.753333333,1.87669745 1.05330255,2.17666667 1.42333333,2.17666667 C1.79336412,2.17666667 2.09333333,1.87669745 2.09333333,1.50666667 C2.09333333,1.13663588 1.79336412,0.836666667 1.42333333,0.836666667 Z" id="Shape"></path>
            </g>
            <g id="Shape-6" opacity="0.45" transform="translate(16.000000, 17.000000)" fill="#F5F5F5">
                <path d="M4.41067757,35.6808971 C6.17174864,35.2134032 6.88995081,32.7590599 5.72902128,31.0838732 L0.809828348,24.0812033 C-0.587222445,22.1333118 0.809828348,19.11408 2.95459647,19.4354821 L19.6109837,21.8898254 C20.3461282,21.9166854 21.0580696,21.6325042 21.5687765,21.1083454 C22.0794834,20.5841867 22.3406707,19.8696073 22.2870247,19.1432984 L22.473954,9.40384099 C22.473954,7.32933656 24.3629241,6.00477035 25.9370659,6.92027934 L44.629999,17.7310771 C45.6575999,18.3234712 46.9755189,17.9842578 47.5815148,16.9713994 L58.4037392,1.13504163 C58.8562698,0.406039035 59.6945567,0.00271018027 60.5531884,0.100867177 C61.41182,0.199024175 62.1351833,0.780877645 62.4079623,1.59279613 L69.7375597,17.9745635 C70.1380286,19.0895029 71.3395966,19.7097348 72.4923078,19.3965243 L95.2091407,12.1795864 C97.2850402,11.5173033 98.9969193,14.1274778 97.9146968,16.3578136 L90.5654226,31.3078807 C89.7389982,32.973328 90.5654226,35.0965297 92.1198876,35.5153263 L96.9210199,36.7814558 C99.5675457,37.4826967 99.370778,42.0115445 96.6750602,42.3816438 L48.8506665,48.9168198 C48.6420626,48.9492926 48.4296137,48.9492926 48.2210098,48.9168198 L4.57793013,41.2713457 C1.95108111,40.8135912 1.81334371,36.3723986 4.41067757,35.6808971 Z" id="Shape"></path>
            </g>
            <g id="Shape-7" transform="translate(66.000000, 59.000000)" fill="#FFC762">
                <polygon id="Shape" points="61.8515699 15.3518711 13.5919833 24.9802495 0.0353636839 7.15540541 49.0469963 0.272349272"></polygon>
            </g>
            <g id="Group-3" transform="translate(39.000000, 26.000000)">
                <g id="Path-27" transform="translate(10.056958, 0.000000)">
                    <path d="M11.1578626,1.28446766 C11.2764388,0.861538524 11.7107934,0.61264356 12.1332002,0.725577151 L29.8160716,5.41241335 C30.0211898,5.46501956 30.1962432,5.59915112 30.3010717,5.78403597 C30.4059002,5.96892082 30.4315058,6.18868938 30.3720141,6.39292301 L19.8383676,44.6131897 L0.741256606,39.57337 L11.1578626,1.28446766 Z" id="Shape" fill="#FFFFFF"></path>
                    <path d="M20.1017087,45.0544191 L0.331614797,39.8381077 L10.806741,1.18641669 C10.9820455,0.575601108 11.6082815,0.215234092 12.2209806,0.372593672 L29.903852,5.05942987 C30.5065903,5.21813756 30.8712769,5.8335362 30.7231356,6.44194849 L20.1017087,45.0544191 Z M1.18991192,39.3184375 L19.5847798,44.1621553 L30.0208925,6.27526185 C30.0505862,6.16860251 30.0362914,6.05441502 29.9812351,5.95847814 C29.9261789,5.86254127 29.835003,5.7929434 29.7282913,5.76539683 L12.0356665,1.07856063 C11.9257268,1.0485779 11.8084401,1.06376711 11.7096484,1.12078158 C11.6108568,1.17779605 11.5386667,1.27195733 11.5089841,1.38251863 L1.18991192,39.3184375 Z" id="Shape" fill="#BAC3E2"></path>
                </g>
                <g id="Path-27-2" transform="translate(29.260129, 11.766116)">
                    <path d="M9.47175573,0.686356765 L19.5567469,3.5004195 C19.9813877,3.61532593 20.2340884,4.05332717 20.1224427,4.48092917 L12.1051674,35.0238052 C11.9906404,35.4511946 11.5573347,35.7082006 11.1298297,35.6023059 L0.488896066,32.97454 L9.47175573,0.686356765 Z" id="Shape" fill="#FFFFFF"></path>
                    <path d="M11.3639107,35.9945098 C11.2731964,36.0053137 11.1815305,36.0053137 11.0908162,35.9945098 L0.0304873752,33.2392776 L9.21816794,0.235322319 L19.6542807,3.17685131 C20.2705965,3.3488182 20.6354461,3.98632416 20.4735643,4.60839542 L12.4562889,35.1120511 C12.3241,35.6152249 11.8811518,35.9730529 11.3639107,35.9945098 Z M0.947304756,32.6999973 L11.2273635,35.2395173 C11.4584811,35.2956032 11.6919991,35.1564884 11.7540458,34.9257542 L19.7615678,4.3926833 C19.8181144,4.16326759 19.684795,3.92980233 19.4592132,3.86320808 L9.70583676,1.14719631 L0.947304756,32.6999973 Z" id="Shape" fill="#BAC3E2"></path>
                </g>
                <g id="Path-27-3" transform="translate(0.000000, 4.258017)">
                    <path d="M1.08385203,32.3738236 C0.666589085,32.2502295 0.421078721,31.8172255 0.527909571,31.3933139 L8.52567821,0.997514307 C8.57826272,0.790995347 8.71122432,0.614397865 8.89465673,0.507442894 C9.07808915,0.400487923 9.29659096,0.372155655 9.50101585,0.428818702 L19.586007,3.16444067 L11.3639107,35.364378 L1.08385203,32.3738236 Z" id="Shape" fill="#FFFFFF"></path>
                    <path d="M11.6077452,35.8252176 L0.976564885,32.726807 C0.367616521,32.5462156 0.0099146138,31.9136684 0.167034645,31.2952629 L8.16480329,0.899463341 C8.33142549,0.281217905 8.962663,-0.0864036552 9.57904287,0.075835223 L20.0346624,2.81145719 L11.6077452,35.8252176 Z M1.18138579,32.0208401 L11.0908162,34.9133436 L19.1666119,3.38015279 L9.41323547,0.830827664 C9.18745944,0.774566494 8.95819911,0.909373239 8.89630652,1.13478566 L0.898537874,31.5305852 C0.841339266,31.7624778 0.973938083,31.9989813 1.20089254,32.0698656 L1.18138579,32.0208401 Z" id="Shape" fill="#BAC3E2"></path>
                </g>
                <g id="Path-28" transform="translate(17.859659, 34.009286)" fill="#F5F5F5">
                    <polygon id="Shape" points="6.82736348 1.26945146 4.8766882 9.38807148 0.0292601292 8.00555286 2.12623605 0.0340092863"></polygon>
                </g>
                <rect id="Rectangle-path" fill="#F5F5F5" transform="translate(31.969349, 10.722922) rotate(15.490000) translate(-31.969349, -10.722922) " x="30.2868912" y="9.03154257" width="3.36491486" height="3.38275834"></rect>
                <rect id="Rectangle-path" fill="#F5F5F5" transform="translate(30.024414, 17.427069) rotate(15.490000) translate(-30.024414, -17.427069) " x="28.3419565" y="15.73569" width="3.36491486" height="3.38275834"></rect>
                <rect id="Rectangle-path" fill="#F5F5F5" transform="translate(25.923645, 9.043771) rotate(13.880000) translate(-25.923645, -9.043771) " x="24.2411879" y="7.35239169" width="3.36491486" height="3.38275834"></rect>
                <rect id="Rectangle-path" fill="#F5F5F5" transform="translate(24.129893, 15.796951) rotate(13.880000) translate(-24.129893, -15.796951) " x="22.4474357" y="14.1055714" width="3.36491486" height="3.38275834"></rect>
            </g>
            <g id="Shape-8" transform="translate(64.000000, 59.000000)">
                <path d="M49.5307549,0.621174621 L1.38188609,7.69478326 L0.493530746,68.9399494 C0.492615817,69.0807281 0.559497113,69.2132837 0.673103212,69.2958536 C0.786709312,69.3784234 0.93305253,69.4008412 1.06602641,69.356044 L49.2346272,53.1085396 C49.41253,53.0486153 49.531967,52.8807869 49.5307456,52.692445 L49.5307549,0.621174621 Z" id="Shape" fill="#FFFFFF"></path>
                <path d="M0.927837802,69.7424176 C0.714086929,69.7450664 0.508180948,69.6616917 0.35610026,69.5109117 C0.204019572,69.3601317 0.118431088,69.1545049 0.118447379,68.9399494 L1.00680272,7.37775879 L49.8959584,0.224894024 L49.8959584,52.732073 C49.8957641,53.079674 49.6726197,53.387629 49.3432039,53.4949132 L1.18447379,69.7424176 C1.09948655,69.7562876 1.01282505,69.7562876 0.927837802,69.7424176 Z M1.74709884,8.01180774 L0.858743497,68.9399494 L1.06602641,69.346137 L0.947579032,68.9894845 L49.1161798,52.74198 L49.1161798,1.04717626 L1.74709884,8.01180774 Z" id="Shape" fill="#BAC3E2"></path>
            </g>
            <g id="Shape-9" transform="translate(66.000000, 59.000000)" fill="#F5F5F5">
                <polygon id="Shape" points="48.7540472 0.0297180109 47.6412028 24.7451971 12.4773056 32.8879321 0.00748611111 6.86486052"></polygon>
            </g>
            <g id="Shape-10" transform="translate(65.000000, 59.000000)">
                <path d="M61.1382337,16.0538596 L14.3482405,25.6131676 C14.1844882,25.6465785 14.0165936,25.5802731 13.9173573,25.4430019 L0.638322011,7.59562378 L49.142055,0.58880117 L61.3536753,15.3331579 C61.4542194,15.4479932 61.4887297,15.6081924 61.4446727,15.7555734 C61.4006156,15.9029544 61.2844,16.0160781 61.1382337,16.0538596 Z" id="Shape" fill="#FFFFFF"></path>
                <path d="M14.2698981,25.993538 C14.0205782,25.9935619 13.7853905,25.8752121 13.6333662,25.6732261 L0.0115828804,7.31535088 L49.3281182,0.228450292 L61.657252,15.092924 C61.8450345,15.311948 61.9034711,15.6170893 61.8103417,15.8923199 C61.7172124,16.1675504 61.4868251,16.3705847 61.2067833,16.4242203 L14.4265829,25.9835283 L14.2698981,25.993538 Z M1.34340353,7.87589669 L14.2209341,25.2528168 L61.0598913,15.723538 L49.0343342,1.02923002 L1.34340353,7.87589669 Z" id="Shape" fill="#BAC3E2"></path>
            </g>
            <g id="Shape-11" transform="translate(21.000000, 59.000000)">
                <path d="M0.67234673,0.66828479 L45.3077888,7.17981392 L44.4039559,68.9848301 C44.3994592,69.1271063 44.3271724,69.2586941 44.2093928,69.3390049 C44.0916131,69.4193157 43.9424904,69.4387009 43.8080221,69.3911812 L0.990178093,52.9785599 C0.81852389,52.9164527 0.703657189,52.754402 0.70214342,52.5722087 L0.67234673,0.66828479 Z" id="Shape" fill="#FFFFFF"></path>
                <path d="M43.9570055,69.7975324 C43.8587848,69.7984812 43.7612022,69.7816925 43.6689708,69.7479773 L0.821330181,53.325445 C0.506896927,53.2068281 0.297799176,52.9076306 0.294921986,52.5722087 L0.294921986,0.24211165 L45.6852136,6.8230178 L44.7813806,68.9550971 C44.7792037,69.2166269 44.6494916,69.4607041 44.4337526,69.6092233 C44.2989366,69.7209658 44.1319407,69.7869271 43.9570055,69.7975324 Z M1.03983924,1.10436893 L1.03983924,52.5722087 L43.9371411,69.0542071 L44.0364634,68.9947411 L44.9303641,7.54652104 L1.03983924,1.10436893 Z" id="Shape" fill="#BAC3E2"></path>
            </g>
            <g id="Shape-12" transform="translate(22.000000, 61.000000)" fill="#F5F5F5">
                <polygon id="Shape" points="0.188658053 0.227709478 1.01279587 22.751147 30.1753592 30.8892857 43.9771852 4.88090316"></polygon>
            </g>
            <g id="Shape-13" transform="translate(7.000000, 59.000000)">
                <path d="M14.8347874,0.659753086 L0.729313698,15.1723457 C0.617164731,15.2850759 0.576866798,15.4494273 0.624401152,15.6002218 C0.671935506,15.7510163 0.799621344,15.8638878 0.956821339,15.8940741 L45.4691859,24.6718519 C45.6345909,24.7044061 45.8041801,24.6398007 45.9044179,24.5060494 L59.2976938,7.06753086 L14.8347874,0.659753086 Z" id="Shape" fill="#FFFFFF"></path>
                <path d="M45.5582106,24.9937037 L45.3999444,24.9937037 L0.887579883,16.2159259 C0.602042138,16.1559451 0.371225583,15.9492912 0.283213546,15.6748265 C0.195201509,15.4003618 0.263574206,15.1004362 0.462239511,14.8895062 L14.7259794,0.259876543 L59.9703251,6.78469136 L46.201167,24.6816049 C46.0476083,24.8784118 45.8100469,24.993727 45.5582106,24.9937037 Z M0.986496249,15.4941975 L45.4988608,24.2719753 L58.6151709,7.34061728 L14.9930536,1.04987654 L0.986496249,15.4259259 L0.986496249,15.8940741 L0.986496249,15.4941975 Z" id="Shape" fill="#BAC3E2"></path>
            </g>
            <g id="offer" transform="translate(93.000000, 36.000000)" fill="#EF4023">
                <path d="M8.47671429,18.7733571 C7.88635714,18.7044821 7.49278571,18.1731607 7.16808929,17.700875 C7.01618392,17.4358764 6.80793336,17.2074726 6.55805357,17.0318036 C6.2486717,16.9807459 5.93156775,17.00436 5.63316071,17.1006786 C5.28342056,17.1920326 4.92161934,17.2285446 4.56067857,17.2089107 C4.35356839,17.1868555 4.15462981,17.1160468 3.98016071,17.0022857 C3.57053475,16.5932458 3.36178949,16.0245949 3.40948214,15.4476786 C3.40593331,15.1335467 3.34248346,14.8229764 3.22253571,14.532625 C2.9751489,14.3390063 2.68500266,14.2074283 2.37635714,14.1488929 C1.854875,13.9717857 1.21532143,13.7553214 0.989017857,13.2436786 C0.851134641,12.6953768 0.947364672,12.1144325 1.25467857,11.639875 C1.41371454,11.3699546 1.50801607,11.0668425 1.53017857,10.7543393 C1.41361416,10.4696759 1.23553415,10.2143159 1.00869643,10.0065536 C0.552349279,9.62888105 0.280040461,9.07351438 0.260910714,8.48146429 C0.329785714,7.88126786 0.861107143,7.49753571 1.32355357,7.163 C1.58855218,7.01109463 1.81695601,6.80284408 1.992625,6.55296429 C2.04368272,6.24358242 2.0200686,5.92647846 1.92375,5.62807143 C1.73086949,5.0965543 1.76648356,4.50892219 2.02214286,4.00458929 C2.43118275,3.59496332 2.99983365,3.38621806 3.57675,3.43391071 C3.88761649,3.42959437 4.19482082,3.36615 4.48196429,3.24696429 C4.67558303,2.99957747 4.80716098,2.70943123 4.86569643,2.40078571 C5.04280357,1.87930357 5.25926786,1.23975 5.77091071,1.00360714 C5.96520607,0.929640073 6.17423922,0.902668054 6.38094643,0.924892857 C6.72430216,0.989821269 7.05597117,1.10590542 7.364875,1.26926786 C7.63536527,1.42701358 7.93817014,1.52121954 8.25041071,1.54476786 C8.53507413,1.42820344 8.79043414,1.25012344 8.99819643,1.02328571 C9.37361682,0.569455468 9.92486986,0.297408515 10.5134464,0.2755 C11.1038036,0.344375 11.497375,0.875696429 11.8220714,1.34798214 C11.9739768,1.61298075 12.1822274,1.84138458 12.4321071,2.01705357 C12.741489,2.06811129 13.058593,2.04449717 13.357,1.94817857 C13.7067402,1.85682457 14.0685414,1.82031252 14.4294821,1.83994643 C14.6365923,1.86200165 14.8355309,1.9328103 15.01,2.04657143 C15.419626,2.45561132 15.6283712,3.02426222 15.5806786,3.60117857 C15.5842274,3.91531043 15.6476773,4.22588071 15.767625,4.51623214 C16.0150118,4.70985088 16.3051581,4.84142883 16.6138036,4.89996429 C17.1352857,5.07707143 17.7748393,5.29353571 18.0011429,5.80517857 C18.1390261,6.35348038 18.042796,6.93442464 17.7354821,7.40898214 C17.5764462,7.67890255 17.4821446,7.9820146 17.4599821,8.29451786 C17.5765466,8.57918127 17.7546266,8.83454128 17.9814643,9.04230357 C18.4378114,9.4199761 18.7101203,9.97534277 18.72925,10.5673929 C18.660375,11.1675893 18.1290536,11.5513214 17.6666071,11.8858571 C17.4016085,12.0377625 17.1732047,12.2460131 16.9975357,12.4958929 C16.946478,12.8052747 16.9700921,13.1223787 17.0664107,13.4207857 C17.2592912,13.9523028 17.2236772,14.539935 16.9680179,15.0442679 C16.558978,15.4538938 15.9903271,15.6626391 15.4134107,15.6149464 C15.1025442,15.6192628 14.7953399,15.6827071 14.5081964,15.8018929 C14.3145777,16.0492797 14.1829997,16.3394259 14.1244643,16.6480714 C13.9473571,17.1695536 13.7308929,17.8091071 13.21925,18.04525 C13.0249546,18.1192171 12.8159215,18.1461891 12.6092143,18.1239643 C12.2658586,18.0590359 11.9341895,17.9429517 11.6252857,17.7795893 C11.3547954,17.6218436 11.0519906,17.5276376 10.73975,17.5040893 C10.4550866,17.6206537 10.1997266,17.7987337 9.99196429,18.0255714 C9.61193454,18.4735351 9.06343836,18.7442215 8.47671429,18.7733571 Z M11.7433571,7.18267857 L6.55805357,11.3053393 L7.11889286,12.0039286 L12.3041964,7.88126786 L11.7433571,7.18267857 Z M7.80764286,8.78648214 C8.59036513,8.86749241 9.2942403,8.30788978 9.39176786,7.52705357 C9.46001592,6.94904145 9.17274823,6.38696945 8.66430793,6.10369525 C8.15586762,5.82042106 7.52674584,5.87193265 7.07115666,6.2341402 C6.61556748,6.59634775 6.42355622,7.19766242 6.58491857,7.75687437 C6.74628091,8.31608632 7.22912425,8.72266961 7.80764286,8.78648214 Z M7.96507143,6.64151786 C8.21955178,6.66734288 8.43312719,6.84453707 8.50548615,7.08987634 C8.57784512,7.33521562 8.49460946,7.59994957 8.29487308,7.75973867 C8.0951367,7.91952778 7.81858843,7.94262096 7.59511672,7.81817189 C7.371645,7.69372282 7.24565503,7.44646027 7.27632143,7.19251786 C7.3222769,6.85459318 7.62530103,6.61217388 7.96507143,6.64151786 Z M11.1234821,12.9485 C11.7022711,13.0056851 12.2584302,12.7082331 12.5321837,12.1950802 C12.8059373,11.6819274 12.743261,11.0543429 12.3734302,10.6054643 C12.0035993,10.1565857 11.399599,9.97499775 10.8435508,10.1455181 C10.2875025,10.3160385 9.88914077,10.8050155 9.83453571,11.3840536 C9.79618389,11.7628052 9.91079245,12.1411762 10.1528636,12.4349877 C10.3949347,12.7287993 10.7443895,12.9136807 11.1234821,12.9485 Z M11.2809107,10.8035357 C11.5353911,10.8293607 11.7489665,11.0065549 11.8213254,11.2518942 C11.8936844,11.4972335 11.8104487,11.7619674 11.6107124,11.9217565 C11.410976,12.0815456 11.1344277,12.1046388 10.910956,11.9801897 C10.6874843,11.8557407 10.5614943,11.6084781 10.5921607,11.3545357 C10.6381162,11.016611 10.9411403,10.7741917 11.2809107,10.8035357 Z" id="Shape"></path>
            </g>
            <g id="Shape-14" transform="translate(126.000000, 36.000000)" fill="#BED1F4">
                <path d="M5.53613445,1.79464286 L3.93277311,1.58928571 L3.21680672,0.294642857 C3.17720464,0.212331845 3.08592072,0.158910348 2.98487395,0.158910348 C2.88382718,0.158910348 2.79254326,0.212331845 2.75294118,0.294642857 L2.03697479,1.58928571 L0.433613445,1.79464286 C0.336814858,1.80549848 0.255782759,1.86483638 0.225575845,1.9469839 C0.19536893,2.02913142 0.221411808,2.11933638 0.292436975,2.17857143 L1.45210084,3.1875 L1.17983193,4.60714286 C1.15819375,4.69371487 1.19647847,4.78341853 1.27737159,4.83568477 C1.3582647,4.88795102 1.46642692,4.8928689 1.55294118,4.84821429 L2.98487395,4.17857143 L4.41680672,4.84821429 C4.50332098,4.8928689 4.6114832,4.88795102 4.69237631,4.83568477 C4.77326943,4.78341853 4.81155415,4.69371487 4.78991597,4.60714286 L4.51764706,3.1875 L5.68739496,2.1875 C5.75842013,2.12826496 5.784463,2.03806 5.75425609,1.95591247 C5.72404917,1.87376495 5.64301707,1.81442705 5.54621849,1.80357143 L5.53613445,1.79464286 Z" id="Shape"></path>
            </g>
            <g id="Shape-15" transform="translate(7.000000, 57.000000)" fill="#BED1F4">
                <path d="M3.3796875,1.55277778 L2.8484375,0.428888889 C2.79665811,0.314850419 2.68832132,0.24241916 2.56953125,0.24241916 C2.45074118,0.24241916 2.34240439,0.314850419 2.290625,0.428888889 L1.759375,1.55277778 L0.572916667,1.76055556 C0.451613094,1.77601931 0.350146199,1.86605787 0.313815788,1.99047359 C0.277485377,2.11488931 0.313071789,2.25046252 0.4046875,2.33666667 L1.29010417,3.18666667 L1.08645833,4.405 C1.06129465,4.53128889 1.10736609,4.66164693 1.20442634,4.73878762 C1.30148658,4.81592831 1.43176919,4.8257314 1.53802083,4.76388889 L2.609375,4.17833333 L3.68072917,4.76388889 C3.78698081,4.8257314 3.91726342,4.81592831 4.01432366,4.73878762 C4.11138391,4.66164693 4.15745535,4.53128889 4.13229167,4.405 L3.92864583,3.18666667 L4.8140625,2.33666667 C4.90567821,2.25046252 4.94126462,2.11488931 4.90493421,1.99047359 C4.8686038,1.86605787 4.76713691,1.77601931 4.64583333,1.76055556 L3.3796875,1.55277778 Z" id="Shape"></path>
            </g>
            <g id="Shape-16" transform="translate(21.000000, 10.000000)" fill="#BED1F4">
                <path d="M1.815625,6.73684211 L3.3954375,5.89473684 L4.97525,6.73684211 C5.13153489,6.81915375 5.3188315,6.8022409 5.45932074,6.69313061 C5.59980998,6.58402032 5.66947656,6.40136395 5.639375,6.22105263 L5.3375,4.45263158 L6.58525,3.21052632 C6.71453456,3.08301469 6.76263156,2.88933887 6.70902201,2.71212417 C6.65541246,2.53490947 6.50955992,2.40543914 6.3336875,2.37894737 L4.592875,2.12631579 L3.7979375,0.494736842 C3.71896861,0.332344423 3.55954335,0.230070038 3.385375,0.230070038 C3.21120665,0.230070038 3.05178139,0.332344423 2.9728125,0.494736842 L2.177875,2.12631579 L0.4370625,2.37894737 C0.26119008,2.40543914 0.115337543,2.53490947 0.0617279923,2.71212417 C0.008118442,2.88933887 0.0562154355,3.08301469 0.1855,3.21052632 L1.43325,4.45263158 L1.131375,6.22105263 C1.10127344,6.40136395 1.17094002,6.58402032 1.31142926,6.69313061 C1.4519185,6.8022409 1.63921511,6.81915375 1.7955,6.73684211 L1.815625,6.73684211 Z" id="Shape"></path>
            </g>
            <g id="Group-4" transform="translate(27.000000, 28.000000)" fill="#BED1F4">
                <g id="Shape-17">
                    <path d="M12.3601333,16.0200444 C9.34010041,17.5668567 5.68562753,17.1418811 3.10114046,14.943324 C0.516653383,12.7447668 -0.488747425,9.20570684 0.55385136,5.97674187 C1.59645014,2.7477769 4.4816741,0.464958701 7.86387089,0.192980931 C11.2460677,-0.0789968389 14.4590014,1.71344087 16.0041778,4.73431111 C17.0222901,6.71327476 17.2102067,9.01626677 16.5263796,11.134103 C15.8425526,13.2519393 14.3433114,15.0101659 12.3601333,16.0200444 Z" id="Shape"></path>
                </g>
            </g>
            <g id="Group-5" transform="translate(31.000000, 32.000000)" fill="#FFFFFF">
                <g id="Shape-18" transform="translate(1.706667, 0.000000)">
                    <g id="path-1-link" transform="translate(0.000000, 0.000000)">
                        <g id="path-1" transform="translate(0.000000, 0.000000)">
                            <path d="M7.26435556,2.63517241 C7.12427658,2.370587 6.8489278,2.19891789 6.54257778,2.18517241 C6.65339243,1.86435384 6.55232253,1.51041343 6.28712314,1.29058635 C6.02192375,1.07075927 5.64568495,1.02905255 5.33617778,1.18517241 L2.90275556,2.39517241 L2.73777778,1.71517241 C2.57466991,0.941121987 1.99612335,0.311326627 1.22204444,0.0651724138 L1.07768889,0.0651724138 C0.78254028,0.0239763997 0.491653795,0.16304458 0.3456,0.415172414 C0.231645854,0.610632225 0.231645854,0.849712602 0.3456,1.04517241 L0.788977778,1.87517241 C0.842084455,1.97705133 0.863575228,2.09168423 0.850844444,2.20517241 L0.634311111,4.20517241 C0.608676033,4.44615125 0.655215725,4.68918844 0.768355556,4.90517241 L1.98506667,7.22517241 L2.41813333,8.04517241 L2.49031111,8.17517241 C2.56314183,8.31667548 2.69150087,8.4238969 2.84658853,8.4727796 C3.00167618,8.52166229 3.17050676,8.50811324 3.3152,8.43517241 L3.48017778,8.35517241 L6.57351111,6.83517241 L7.20248889,6.52517241 C7.48975389,6.38365281 7.67071756,6.09765342 7.67071756,5.78517241 C7.67071756,5.47269141 7.48975389,5.18669202 7.20248889,5.04517241 C7.45388003,4.87896708 7.59538594,4.59581901 7.57416164,4.30146902 C7.55293733,4.00711904 7.37217422,3.74582729 7.09937778,3.61517241 C7.37200805,3.35994809 7.43912873,2.96123824 7.26435556,2.63517241 Z" id="Shape"></path>
                        </g>
                    </g>
                </g>
                <g id="Rectangle-7" transform="translate(0.000000, 5.000000)">
                    <path d="M0.526222222,0.795172414 L1.78417778,0.175172414 L3.76391111,3.95517241 L2.50595556,4.57517241 C2.36126231,4.64811324 2.19243174,4.66166229 2.03734408,4.6127796 C1.88225642,4.5638969 1.75389738,4.45667548 1.68106667,4.31517241 L0.237511111,1.58517241 C0.167017578,1.44339191 0.157862341,1.28017113 0.212081567,1.1318111 C0.266300792,0.983451076 0.379398847,0.862253198 0.526222222,0.795172414 Z" id="Shape"></path>
                </g>
            </g>
        </g>
    </g>
</svg>